<svg width="15" height="13" viewBox="0 0 15 13" fill="none" xmlns="http://www.w3.org/2000/svg">
<g clip-path="url(#clip0_239_77)">
<path d="M10.3543 7.4822C10.2705 7.47204 10.1842 7.46189 10.1004 7.44919C10.1867 7.45935 10.2705 7.47204 10.3543 7.4822ZM7.3125 5.76579C6.64981 4.47849 4.84707 2.07907 3.17129 0.895871C1.56406 -0.23909 0.952149 -0.0435819 0.548438 0.139231C0.0837891 0.349973 0 1.06345 0 1.48239C0 1.90134 0.231055 4.92536 0.380859 5.43064C0.875977 7.0988 2.64316 7.66247 4.2707 7.47966C4.35449 7.46697 4.43828 7.45681 4.52461 7.44411C4.44082 7.45681 4.35703 7.4695 4.2707 7.47966C1.88652 7.83513 -0.231055 8.70349 2.54668 11.7935C5.60117 14.9572 6.73106 11.1156 7.3125 9.16814C7.89395 11.1156 8.56172 14.8176 12.025 11.7935C14.625 9.16814 12.7385 7.83259 10.3543 7.47966C10.2705 7.4695 10.1842 7.45935 10.1004 7.44665C10.1867 7.45681 10.2705 7.4695 10.3543 7.47966C11.9818 7.65993 13.7465 7.09626 14.2441 5.43064C14.3939 4.92536 14.625 1.90388 14.625 1.48239C14.625 1.06091 14.5412 0.347434 14.0766 0.139231C13.6754 -0.0410429 13.0609 -0.23909 11.4563 0.895871C9.77793 2.07907 7.9752 4.47849 7.3125 5.76579Z" fill="white"/>
</g>
<defs>
<clipPath id="clip0_239_77">
<rect width="14.625" height="13" fill="white"/>
</clipPath>
</defs>
</svg>
